<?xml version="1.0" encoding="UTF-8" standalone="no"?>
<svg
   width="24"
   height="24"
   version="1.1"
   id="svg7"
   sodipodi:docname="variety-indicator.svg"
   inkscape:version="1.1.2 (0a00cf5339, 2022-02-04, custom)"
   xmlns:inkscape="http://www.inkscape.org/namespaces/inkscape"
   xmlns:sodipodi="http://sodipodi.sourceforge.net/DTD/sodipodi-0.dtd"
   xmlns="http://www.w3.org/2000/svg"
   xmlns:svg="http://www.w3.org/2000/svg">
  <sodipodi:namedview
     id="namedview9"
     pagecolor="#ffffff"
     bordercolor="#666666"
     borderopacity="1.0"
     inkscape:pageshadow="2"
     inkscape:pageopacity="0.0"
     inkscape:pagecheckerboard="0"
     showgrid="false"
     inkscape:zoom="30.291667"
     inkscape:cx="5.7111416"
     inkscape:cy="12"
     inkscape:window-width="1920"
     inkscape:window-height="1010"
     inkscape:window-x="1600"
     inkscape:window-y="54"
     inkscape:window-maximized="1"
     inkscape:current-layer="svg7" />
  <defs
     id="defs3">
    <style
       id="current-color-scheme"
       type="text/css">
   .ColorScheme-Text { color:#eeeeec; } .ColorScheme-Highlight { color:#367bf0; } .ColorScheme-NeutralText { color:#ffcc44; } .ColorScheme-PositiveText { color:#3db47e; } .ColorScheme-NegativeText { color:#dd4747; }
  </style>
  </defs>
  <path
     style="fill:#ffffff;fill-opacity:1;stroke-width:1.29645"
     class="ColorScheme-Text"
     d="m 2.9163359,4.3484203 c -1.3168125,0 -1.3168125,1.2764311 -1.3168125,1.2764311 v 11.4112946 3.471892 c 0.2831147,0.293579 0.7202964,0.44675 1.1522109,0.395694 0.059256,0 0.1040278,0.03829 0.1646016,0.03829 H 21.35171 c 0.729515,0 1.316813,-0.574394 1.316813,-1.276431 V 5.6248514 c 0,-0.7020372 -0.587298,-1.2764311 -1.316813,-1.2764311 h -3.826656 -1.399772 z m 0,1.2764311 h 13.7027501 1.399772 3.332852 v 8.9350176 1.39131 2.437983 H 15.343095 2.9163359 V 18.184934 Z M 13.450835,6.9012825 c -0.72688,0 -1.316812,0.5743939 -1.316812,1.276431 0,0.7020371 0.589932,1.2764311 1.316812,1.2764311 0.726881,0 1.316813,-0.574394 1.316813,-1.2764311 0,-0.7020371 -0.589932,-1.276431 -1.316813,-1.276431 z M 8.1835857,10.730576 c -1.9752187,0 -3.9504374,2.552861 -3.9504374,5.782232 v 0.599923 H 20.034897 c 0,0 -1.316811,-5.105724 -3.29203,-5.105724 -1.975219,0 -1.975219,2.552862 -3.292032,2.552862 -1.316812,0 -3.292031,-3.829293 -5.2672493,-3.829293 z"
     id="path5" />
</svg>
