<?xml version="1.0" encoding="UTF-8" standalone="no"?>
<!-- Generator: Gravit.io -->

<svg
   style="isolation:isolate"
   viewBox="0 0 48 48"
   width="48pt"
   height="48pt"
   version="1.1"
   id="svg8"
   sodipodi:docname="folder-games.svg"
   inkscape:version="1.1.2 (0a00cf5339, 2022-02-04, custom)"
   xmlns:inkscape="http://www.inkscape.org/namespaces/inkscape"
   xmlns:sodipodi="http://sodipodi.sourceforge.net/DTD/sodipodi-0.dtd"
   xmlns="http://www.w3.org/2000/svg"
   xmlns:svg="http://www.w3.org/2000/svg">
  <defs
     id="defs12">
    <linearGradient
       id="linearGradient4227">
      <stop
         id="stop00"
         offset="0.0"
         style="stop-color:#f7aa94;stop-opacity:1.0" />
      <stop
         id="stop01"
         offset="0.5"
         style="stop-color:#f07cac;stop-opacity:1.0" />
      <stop
         id="stop02"
         offset="1.0"
         style="stop-color:#ed72c7;stop-opacity:1.0" />
    </linearGradient>
  </defs>
  <sodipodi:namedview
     id="namedview10"
     pagecolor="#ffffff"
     bordercolor="#666666"
     borderopacity="1.0"
     inkscape:pageshadow="2"
     inkscape:pageopacity="0.0"
     inkscape:pagecheckerboard="0"
     inkscape:document-units="pt"
     showgrid="false"
     inkscape:zoom="8.9375"
     inkscape:cx="31.048951"
     inkscape:cy="31.72028"
     inkscape:window-width="1920"
     inkscape:window-height="1010"
     inkscape:window-x="1600"
     inkscape:window-y="54"
     inkscape:window-maximized="1"
     inkscape:current-layer="svg8" />
  <path
     d=" M 1.247 13.3 L 1.247 41.208 C 1.247 42.864 2.591 44.208 4.247 44.208 L 43.229 44.208 C 44.885 44.208 46.229 42.864 46.229 41.208 L 46.229 17.465 C 46.229 15.809 44.885 14.464 43.229 14.463 L 21.116 14.446 C 20.564 14.445 19.799 14.128 19.409 13.737 L 17.299 11.623 C 16.519 10.842 14.99 10.214 13.886 10.221 L 4.247 10.281 C 2.591 10.292 1.247 11.644 1.247 13.3 Z "
     id="path2"
     style="fill:#2b62c0;fill-opacity:1" />
  <path
     d=" M 6.5 16 L 41.5 16 C 42.604 16 43.5 16.896 43.5 18 L 43.5 28 C 43.5 29.104 42.604 30 41.5 30 L 6.5 30 C 5.396 30 4.5 29.104 4.5 28 L 4.5 18 C 4.5 16.896 5.396 16 6.5 16 Z "
     id="path4"
     style="fill:#e1e1e1;fill-opacity:1" />
  <path
     d="m 1.247,17.965 v 25.243 c 0,1.656 1.344,3 3,3 h 38.982 c 1.656,0 3,-1.344 3,-3 V 20.965 c 0,-1.656 -1.344,-3.001 -3,-3.002 L 21.116,17.946 c -0.552,-0.001 -1.448,-0.001 -2,0 z"
     id="path6"
     style="fill:#367bf0;fill-opacity:1"
     sodipodi:nodetypes="cssssscccc" />
  <g
     id="g1009"
     transform="translate(-8.7520736,-4)"
     style="fill:#e1e1e1;fill-opacity:1">
    <path
       d="m 31.001,36.484 v 0 c 0.364,0 0.66,0.295 0.66,0.659 v 0 c 0,0.364 -0.296,0.66 -0.66,0.66 v 0 h -2.732 c -0.182,0 -0.374,0.141 -0.429,0.315 l -0.726,2.309 C 26.842,41.295 25.881,42 24.971,42 h -0.445 c -0.91,0 -1.592,-0.737 -1.521,-1.644 l 0.644,-8.275 c 0.07,-0.907 0.492,-2.19 0.94,-2.863 v 0 C 25.038,28.546 26.141,28 27.051,28 h 6.319 v 0 c 0.364,0 0.659,0.296 0.659,0.66 v 0 c 0,0.364 -0.295,0.659 -0.659,0.659 v 0 h -6.273 c -0.546,0 -1.216,0.341 -1.495,0.76 v 0 c -0.28,0.42 -0.547,1.202 -0.596,1.745 l -0.75,8.2 c -0.033,0.363 0.236,0.657 0.6,0.657 h 0.214 c 0.364,0 0.748,-0.282 0.857,-0.629 l 0.825,-2.624 c 0.164,-0.521 0.74,-0.944 1.286,-0.944 z m 5.576,-7.165 v 0 c -0.364,0 -0.659,-0.295 -0.659,-0.659 v 0 c 0,-0.364 0.295,-0.66 0.659,-0.66 v 0 h 1.912 c 0.91,0 2.013,0.546 2.462,1.218 v 0 c 0.448,0.673 0.87,1.956 0.941,2.863 l 0.643,8.275 C 42.606,41.263 41.924,42 41.014,42 h -0.702 c -0.91,0 -1.964,-0.668 -2.352,-1.491 l -1.135,-2.408 c -0.078,-0.164 -0.288,-0.298 -0.47,-0.298 h -2.596 v 0 c -0.364,0 -0.659,-0.296 -0.659,-0.66 v 0 c 0,-0.364 0.295,-0.659 0.659,-0.659 v 0 h 3.011 c 0.364,0 0.786,0.267 0.941,0.597 l 1.416,3.003 c 0.155,0.33 0.577,0.597 0.941,0.597 h 0.616 c 0.364,0 0.633,-0.294 0.6,-0.657 l -0.749,-8.2 c -0.05,-0.543 -0.317,-1.325 -0.597,-1.745 v 0 c -0.279,-0.419 -0.949,-0.76 -1.495,-0.76 z m -9.803,3.159 v 0.862 h 1.083 c 0.176,0 0.319,0.143 0.319,0.32 v 1.083 h 0.863 v -1.084 c 0,-0.176 0.143,-0.319 0.319,-0.319 h 1.084 v -0.862 h -1.084 c -0.176,0 -0.319,-0.143 -0.319,-0.319 v -1.084 h -0.863 v 1.083 c 0,0.177 -0.143,0.32 -0.319,0.32 z m 10.817,0.333 c 0,-0.362 0.294,-0.656 0.657,-0.656 0.362,0 0.656,0.294 0.656,0.656 0,0.362 -0.294,0.656 -0.656,0.656 -0.363,0 -0.657,-0.294 -0.657,-0.656 z m -2.625,0 c 0,-0.362 0.294,-0.656 0.657,-0.656 0.362,0 0.656,0.294 0.656,0.656 0,0.362 -0.294,0.656 -0.656,0.656 -0.363,0 -0.657,-0.294 -0.657,-0.656 z m 1.969,-1.969 c 0.362,0 0.656,0.294 0.656,0.657 0,0.362 -0.294,0.656 -0.656,0.656 -0.362,0 -0.656,-0.294 -0.656,-0.656 0,-0.363 0.294,-0.657 0.656,-0.657 z m -9.078,-0.406 h 1.501 c 0.176,0 0.32,0.143 0.32,0.319 v 1.084 h 1.083 c 0.176,0 0.319,0.143 0.319,0.319 v 1.501 10e-4 0 c 0,0.176 -0.143,0.319 -0.319,0.319 h -1.084 v 1.083 c 0,0.177 -0.143,0.32 -0.319,0.32 h -1.501 c -0.176,0 -0.319,-0.143 -0.319,-0.32 v -1.083 h -1.084 c -0.176,0 -0.319,-0.143 -0.319,-0.319 v -1.501 c 0,-0.177 0.143,-0.32 0.319,-0.32 h 1.084 v -1.084 c 0,-0.176 0.143,-0.319 0.319,-0.319 z m 9.078,3.031 c 0.362,0 0.656,0.294 0.656,0.657 0,0.362 -0.294,0.656 -0.656,0.656 -0.362,0 -0.656,-0.294 -0.656,-0.656 0,-0.363 0.294,-0.657 0.656,-0.657 z"
       fill-rule="evenodd"
       fill="rgb(255,255,255)"
       id="path9"
       style="isolation:isolate;fill:#e1e1e1;fill-opacity:1" />
  </g>
</svg>
