<?xml version="1.0" encoding="UTF-8" standalone="no"?>
<!-- Generator: Gravit.io -->

<svg
   style="isolation:isolate"
   viewBox="0 0 48 48"
   width="48pt"
   height="48pt"
   version="1.1"
   id="svg10"
   sodipodi:docname="folder-documents.svg"
   inkscape:version="1.1.2 (0a00cf5339, 2022-02-04, custom)"
   xmlns:inkscape="http://www.inkscape.org/namespaces/inkscape"
   xmlns:sodipodi="http://sodipodi.sourceforge.net/DTD/sodipodi-0.dtd"
   xmlns="http://www.w3.org/2000/svg"
   xmlns:svg="http://www.w3.org/2000/svg">
  <defs
     id="defs14">
    <linearGradient
       id="linearGradient4227">
      <stop
         id="stop00"
         offset="0.0"
         style="stop-color:#f7aa94;stop-opacity:1.0" />
      <stop
         id="stop01"
         offset="0.5"
         style="stop-color:#f07cac;stop-opacity:1.0" />
      <stop
         id="stop02"
         offset="1.0"
         style="stop-color:#ed72c7;stop-opacity:1.0" />
    </linearGradient>
  </defs>
  <sodipodi:namedview
     id="namedview12"
     pagecolor="#ffffff"
     bordercolor="#666666"
     borderopacity="1.0"
     inkscape:pageshadow="2"
     inkscape:pageopacity="0.0"
     inkscape:pagecheckerboard="0"
     inkscape:document-units="pt"
     showgrid="false"
     inkscape:zoom="8.9375"
     inkscape:cx="9.9020979"
     inkscape:cy="31.272727"
     inkscape:window-width="1920"
     inkscape:window-height="1010"
     inkscape:window-x="1600"
     inkscape:window-y="54"
     inkscape:window-maximized="1"
     inkscape:current-layer="svg10" />
  <path
     d=" M 1.247 13.3 L 1.247 41.208 C 1.247 42.864 2.591 44.208 4.247 44.208 L 43.229 44.208 C 44.885 44.208 46.229 42.864 46.229 41.208 L 46.229 17.465 C 46.229 15.809 44.885 14.464 43.229 14.463 L 21.116 14.446 C 20.564 14.445 19.799 14.128 19.409 13.737 L 17.299 11.623 C 16.519 10.842 14.99 10.214 13.886 10.221 L 4.247 10.281 C 2.591 10.292 1.247 11.644 1.247 13.3 Z "
     id="path2"
     style="fill:#6c8489;fill-opacity:1" />
  <path
     d=" M 6.5 16 L 41.5 16 C 42.604 16 43.5 16.896 43.5 18 L 43.5 28 C 43.5 29.104 42.604 30 41.5 30 L 6.5 30 C 5.396 30 4.5 29.104 4.5 28 L 4.5 18 C 4.5 16.896 5.396 16 6.5 16 Z "
     id="path4"
     style="fill:#e1e1e1;fill-opacity:1" />
  <path
     d="m 1.247,17.965 v 25.243 c 0,1.656 1.344,3 3,3 h 38.982 c 1.656,0 3,-1.344 3,-3 V 20.965 c 0,-1.656 -1.344,-3.001 -3,-3.002 L 21.116,17.946 c -0.552,-0.001 -1.448,-0.001 -2,0 z"
     id="path6"
     style="fill:#367bf0;fill-opacity:1"
     sodipodi:nodetypes="cssssscccc" />
  <path
     d=" M 23.032 25.478 L 23.032 25.478 C 23.44 25.478 23.771 25.147 23.771 24.739 L 23.771 24.739 C 23.771 24.331 23.44 24 23.032 24 L 23.032 24 L 17.086 24 C 16.066 24 15.238 24.828 15.238 25.848 L 15.238 39.152 C 15.238 40.172 16.066 41 17.086 41 L 30.39 41 C 31.41 41 32.238 40.172 32.238 39.152 L 32.238 31.794 C 32.238 31.386 31.907 31.055 31.499 31.055 L 26.661 31.055 C 26.457 31.055 26.292 30.889 26.292 30.685 L 26.292 27.385 C 26.292 27.181 26.421 27.119 26.58 27.246 L 30.298 30.22 L 30.298 30.22 C 30.616 30.475 31.081 30.423 31.336 30.105 L 31.336 30.105 C 31.591 29.787 31.54 29.322 31.222 29.067 L 31.222 29.067 L 25.679 24.633 C 25.201 24.251 24.813 24.438 24.813 25.05 L 24.813 31.425 C 24.813 32.036 25.31 32.533 25.922 32.533 L 30.021 32.533 C 30.429 32.533 30.76 32.864 30.76 33.272 L 30.76 38.413 C 30.76 39.025 30.263 39.522 29.651 39.522 L 17.825 39.522 C 17.213 39.522 16.716 39.025 16.716 38.413 L 16.716 26.587 C 16.716 25.975 17.213 25.478 17.825 25.478 L 23.032 25.478 Z "
     id="path8"
     style="fill:#e1e1e1;fill-opacity:1" />
  <path
     style="fill:#2b62c0;fill-opacity:1;stroke-width:0.111888"
     d="M 61.158617,26.008117 C 60.641681,25.020158 59.549008,24.196628 58.492002,23.998333 58.140199,23.932334 58.081588,23.873444 58.01513,23.519195 57.853666,22.658518 57.332342,21.982863 56.462111,21.506427 56.134454,21.32704 54.557742,21.314685 31.991226,21.314685 H 7.8705634 L 7.3198971,21.65361 c -0.6433434,0.395966 -1.2250512,1.198723 -1.3334128,1.84011 l -0.076084,0.450336 H 3.7871661 1.6639318 l 0.03734,-3.496504 c 0.03561,-3.334518 0.049181,-3.526058 0.2929294,-4.134448 0.3574914,-0.89229 1.1023716,-1.680652 2.0105035,-2.127865 l 0.7453638,-0.367057 6.5480425,-0.08862 c 7.275697,-0.09847 7.91022,-0.07988 8.953637,0.262233 1.459702,0.478607 1.964408,0.835236 3.983368,2.814681 1.500966,1.471589 2.055708,1.942622 2.573427,2.185104 l 0.659988,0.309117 15.608392,0.05594 15.608392,0.05594 0.653068,0.330604 c 0.837498,0.423966 1.664211,1.32248 1.970832,2.141999 0.211463,0.565185 0.231165,0.82476 0.203704,2.68383 l -0.0304,2.058129 z"
     id="path976"
     transform="scale(0.75)" />
</svg>
