<?xml version="1.0" encoding="UTF-8" standalone="no"?>
<!-- Generator: Gravit.io -->

<svg
   style="isolation:isolate"
   viewBox="0 0 48 48"
   width="48pt"
   height="48pt"
   version="1.1"
   id="svg8"
   sodipodi:docname="folder-favorites.svg"
   inkscape:version="1.1.2 (0a00cf5339, 2022-02-04, custom)"
   xmlns:inkscape="http://www.inkscape.org/namespaces/inkscape"
   xmlns:sodipodi="http://sodipodi.sourceforge.net/DTD/sodipodi-0.dtd"
   xmlns="http://www.w3.org/2000/svg"
   xmlns:svg="http://www.w3.org/2000/svg">
  <defs
     id="defs12">
    <linearGradient
       id="linearGradient4227">
      <stop
         id="stop00"
         offset="0.0"
         style="stop-color:#f7aa94;stop-opacity:1.0" />
      <stop
         id="stop01"
         offset="0.5"
         style="stop-color:#f07cac;stop-opacity:1.0" />
      <stop
         id="stop02"
         offset="1.0"
         style="stop-color:#ed72c7;stop-opacity:1.0" />
    </linearGradient>
  </defs>
  <sodipodi:namedview
     id="namedview10"
     pagecolor="#ffffff"
     bordercolor="#666666"
     borderopacity="1.0"
     inkscape:pageshadow="2"
     inkscape:pageopacity="0.0"
     inkscape:pagecheckerboard="0"
     inkscape:document-units="pt"
     showgrid="false"
     inkscape:zoom="8.9375"
     inkscape:cx="54.769231"
     inkscape:cy="34.517483"
     inkscape:window-width="1920"
     inkscape:window-height="1010"
     inkscape:window-x="1600"
     inkscape:window-y="54"
     inkscape:window-maximized="1"
     inkscape:current-layer="svg8" />
  <path
     d=" M 1.247 13.3 L 1.247 41.208 C 1.247 42.864 2.591 44.208 4.247 44.208 L 43.229 44.208 C 44.885 44.208 46.229 42.864 46.229 41.208 L 46.229 17.465 C 46.229 15.809 44.885 14.464 43.229 14.463 L 21.116 14.446 C 20.564 14.445 19.799 14.128 19.409 13.737 L 17.299 11.623 C 16.519 10.842 14.99 10.214 13.886 10.221 L 4.247 10.281 C 2.591 10.292 1.247 11.644 1.247 13.3 Z "
     id="path2"
     style="fill:#2b62c0;fill-opacity:1" />
  <path
     d=" M 6.5 16 L 41.5 16 C 42.604 16 43.5 16.896 43.5 18 L 43.5 28 C 43.5 29.104 42.604 30 41.5 30 L 6.5 30 C 5.396 30 4.5 29.104 4.5 28 L 4.5 18 C 4.5 16.896 5.396 16 6.5 16 Z "
     id="path4"
     style="fill:#e1e1e1;fill-opacity:1" />
  <path
     d="m 1.247,17.965 v 25.243 c 0,1.656 1.344,3 3,3 h 38.982 c 1.656,0 3,-1.344 3,-3 V 20.965 c 0,-1.656 -1.344,-3.001 -3,-3.002 L 21.116,17.946 c -0.552,-0.001 -1.448,-0.001 -2,0 z"
     id="path6"
     style="fill:#367bf0;fill-opacity:1"
     sodipodi:nodetypes="cssssscccc" />
  <g
     id="g855"
     transform="matrix(0.15641005,0,0,0.16117087,-6.4423703,-3.2216603)"
     style="fill:#e1e1e1;fill-opacity:1;stroke:#516367;stroke-opacity:1">
    <path
       d="m 240.28,174.79 c -5.3164,-5.2421 -12.661,-7.858 -22.037,-7.858 -2.5957,0 -5.2421,0.4529 -7.9426,1.362 -2.7005,0.90581 -5.2116,2.1326 -7.5336,3.6739 -2.3219,1.5412 -4.3194,2.9911 -5.9958,4.343 -1.673,1.3519 -3.2615,2.7883 -4.7689,4.3093 -1.5074,-1.5209 -3.0959,-2.9574 -4.7723,-4.3093 -1.673,-1.3519 -3.6705,-2.7985 -5.9958,-4.343 -2.3219,-1.5412 -4.8331,-2.768 -7.5336,-3.6739 -2.6971,-0.90919 -5.3469,-1.362 -7.9392,-1.362 -9.3757,0 -16.723,2.6194 -22.037,7.858 -5.3164,5.2387 -7.973,12.505 -7.973,21.8 0,2.8289 0.49008,5.7457 1.4736,8.7432 0.98351,2.9978 2.1056,5.5564 3.3595,7.6688 1.2573,2.1124 2.6802,4.1707 4.2687,6.1783 1.5918,2.0076 2.7546,3.39 3.4846,4.1504 0.73341,0.76045 1.308,1.308 1.7271,1.6459 l 39.175,38.152 c 0.7537,0.76046 1.673,1.1424 2.7613,1.1424 1.0883,0 2.0076,-0.38192 2.7613,-1.1424 l 39.115,-38.023 c 9.5816,-9.6733 14.374,-19.18 14.374,-28.515 0,-9.2943 -2.6565,-16.561 -7.973,-21.8 z"
       fill="#ffffff"
       stroke-width="0.86523"
       id="path21"
       style="fill:#e1e1e1;fill-opacity:1;stroke:#516367;stroke-opacity:1" />
  </g>
</svg>
