<?xml version="1.0" encoding="UTF-8" standalone="no"?>
<!-- Generator: Gravit.io -->

<svg
   style="isolation:isolate"
   viewBox="0 0 48 48"
   width="48pt"
   height="48pt"
   version="1.1"
   id="svg8"
   sodipodi:docname="folder-recent.svg"
   inkscape:version="1.1.2 (0a00cf5339, 2022-02-04, custom)"
   xmlns:inkscape="http://www.inkscape.org/namespaces/inkscape"
   xmlns:sodipodi="http://sodipodi.sourceforge.net/DTD/sodipodi-0.dtd"
   xmlns="http://www.w3.org/2000/svg"
   xmlns:svg="http://www.w3.org/2000/svg">
  <defs
     id="defs12">
    <linearGradient
       id="linearGradient4227">
      <stop
         id="stop00"
         offset="0.0"
         style="stop-color:#f7aa94;stop-opacity:1.0" />
      <stop
         id="stop01"
         offset="0.5"
         style="stop-color:#f07cac;stop-opacity:1.0" />
      <stop
         id="stop02"
         offset="1.0"
         style="stop-color:#ed72c7;stop-opacity:1.0" />
    </linearGradient>
  </defs>
  <sodipodi:namedview
     id="namedview10"
     pagecolor="#ffffff"
     bordercolor="#666666"
     borderopacity="1.0"
     inkscape:pageshadow="2"
     inkscape:pageopacity="0.0"
     inkscape:pagecheckerboard="0"
     inkscape:document-units="pt"
     showgrid="false"
     inkscape:zoom="8.9375"
     inkscape:cx="31.048951"
     inkscape:cy="31.72028"
     inkscape:window-width="1920"
     inkscape:window-height="1010"
     inkscape:window-x="1600"
     inkscape:window-y="54"
     inkscape:window-maximized="1"
     inkscape:current-layer="svg8" />
  <path
     d=" M 1.247 13.3 L 1.247 41.208 C 1.247 42.864 2.591 44.208 4.247 44.208 L 43.229 44.208 C 44.885 44.208 46.229 42.864 46.229 41.208 L 46.229 17.465 C 46.229 15.809 44.885 14.464 43.229 14.463 L 21.116 14.446 C 20.564 14.445 19.799 14.128 19.409 13.737 L 17.299 11.623 C 16.519 10.842 14.99 10.214 13.886 10.221 L 4.247 10.281 C 2.591 10.292 1.247 11.644 1.247 13.3 Z "
     id="path2"
     style="fill:#2b62c0;fill-opacity:1" />
  <path
     d=" M 6.5 16 L 41.5 16 C 42.604 16 43.5 16.896 43.5 18 L 43.5 28 C 43.5 29.104 42.604 30 41.5 30 L 6.5 30 C 5.396 30 4.5 29.104 4.5 28 L 4.5 18 C 4.5 16.896 5.396 16 6.5 16 Z "
     id="path4"
     style="fill:#e1e1e1;fill-opacity:1" />
  <path
     d="m 1.247,17.965 v 25.243 c 0,1.656 1.344,3 3,3 h 38.982 c 1.656,0 3,-1.344 3,-3 V 20.965 c 0,-1.656 -1.344,-3.001 -3,-3.002 L 21.116,17.946 c -0.552,-0.001 -1.448,-0.001 -2,0 z"
     id="path6"
     style="fill:#367bf0;fill-opacity:1"
     sodipodi:nodetypes="cssssscccc" />
  <g
     id="g23"
     transform="translate(-8.4908305,0.43)"
     style="isolation:isolate;fill:#e1e1e1;fill-opacity:1">
    <path
       d="m 28.266,25.89 v 0 c -0.248,0.152 -0.575,0.074 -0.73,-0.174 v 0 c -0.154,-0.248 -0.078,-0.575 0.17,-0.729 v 0 c 1.506,-0.925 3.234,-1.417 5,-1.417 2.521,0 4.942,1.004 6.728,2.786 1.782,1.786 2.786,4.207 2.786,6.728 0,2.522 -1.004,4.942 -2.786,6.729 -1.786,1.781 -4.207,2.785 -6.728,2.785 -1.829,0 -3.621,-0.528 -5.159,-1.522 -1.538,-0.994 -2.759,-2.41 -3.515,-4.075 v 0 c -0.12,-0.266 -0.001,-0.579 0.264,-0.7 v 0 c 0.266,-0.121 0.581,-0.004 0.703,0.261 v 0 c 0.666,1.485 1.75,2.743 3.119,3.626 1.369,0.883 2.96,1.353 4.588,1.353 2.241,0 4.392,-0.893 5.978,-2.479 1.586,-1.585 2.479,-3.737 2.479,-5.978 0,-2.241 -0.893,-4.392 -2.479,-5.978 -1.586,-1.586 -3.737,-2.479 -5.978,-2.479 -1.57,0 -3.108,0.434 -4.44,1.263 z m -3.938,8.373 v 0 c 0.032,0.289 -0.178,0.549 -0.468,0.581 v 0 c -0.29,0.032 -0.552,-0.178 -0.584,-0.47 v 0 l -0.053,-0.529 v 0 c -0.032,-0.288 0.178,-0.549 0.468,-0.581 v 0 c 0.29,-0.032 0.552,0.179 0.584,0.47 v 0 z m 0.005,-2.384 v 0 c -0.049,0.286 -0.323,0.479 -0.61,0.431 v 0 c -0.288,-0.048 -0.481,-0.322 -0.431,-0.611 v 0 l 0.069,-0.422 v 0 c 0.049,-0.286 0.323,-0.479 0.61,-0.431 v 0 c 0.288,0.048 0.483,0.321 0.436,0.61 v 0 z m 12.258,2.474 v 0 c 0.274,0.102 0.414,0.406 0.312,0.679 v 0 c -0.103,0.273 -0.408,0.411 -0.682,0.309 v 0 l -4.572,-1.712 v -5.122 0 c 0,-0.292 0.236,-0.529 0.528,-0.529 v 0 c 0.292,0 0.529,0.237 0.529,0.529 v 0 4.387 z"
       fill-rule="evenodd"
       fill="#ffffff"
       id="path9"
       style="isolation:isolate;fill:#e1e1e1;fill-opacity:1" />
  </g>
</svg>
