<?xml version="1.0" encoding="UTF-8" standalone="no"?>
<!-- Generator: Gravit.io -->

<svg
   style="isolation:isolate"
   viewBox="0 0 48 48"
   width="48pt"
   height="48pt"
   version="1.1"
   id="svg8"
   sodipodi:docname="virtualbox.svg"
   inkscape:version="1.1.2 (0a00cf5339, 2022-02-04, custom)"
   xmlns:inkscape="http://www.inkscape.org/namespaces/inkscape"
   xmlns:sodipodi="http://sodipodi.sourceforge.net/DTD/sodipodi-0.dtd"
   xmlns="http://www.w3.org/2000/svg"
   xmlns:svg="http://www.w3.org/2000/svg">
  <defs
     id="defs12">
    <linearGradient
       id="linearGradient4227">
      <stop
         id="stop00"
         offset="0.0"
         style="stop-color:#f7aa94;stop-opacity:1.0" />
      <stop
         id="stop01"
         offset="0.5"
         style="stop-color:#f07cac;stop-opacity:1.0" />
      <stop
         id="stop02"
         offset="1.0"
         style="stop-color:#ed72c7;stop-opacity:1.0" />
    </linearGradient>
  </defs>
  <sodipodi:namedview
     id="namedview10"
     pagecolor="#ffffff"
     bordercolor="#666666"
     borderopacity="1.0"
     inkscape:pageshadow="2"
     inkscape:pageopacity="0.0"
     inkscape:pagecheckerboard="0"
     inkscape:document-units="pt"
     showgrid="false"
     inkscape:zoom="8.9375"
     inkscape:cx="31.104895"
     inkscape:cy="40.671329"
     inkscape:window-width="1600"
     inkscape:window-height="884"
     inkscape:window-x="0"
     inkscape:window-y="0"
     inkscape:window-maximized="1"
     inkscape:current-layer="svg8" />
  <path
     d=" M 1.247 13.3 L 1.247 41.208 C 1.247 42.864 2.591 44.208 4.247 44.208 L 43.229 44.208 C 44.885 44.208 46.229 42.864 46.229 41.208 L 46.229 17.465 C 46.229 15.809 44.885 14.464 43.229 14.463 L 21.116 14.446 C 20.564 14.445 19.799 14.128 19.409 13.737 L 17.299 11.623 C 16.519 10.842 14.99 10.214 13.886 10.221 L 4.247 10.281 C 2.591 10.292 1.247 11.644 1.247 13.3 Z "
     id="path2"
     style="fill:#2b62c0;fill-opacity:1" />
  <path
     d=" M 6.5 16 L 41.5 16 C 42.604 16 43.5 16.896 43.5 18 L 43.5 28 C 43.5 29.104 42.604 30 41.5 30 L 6.5 30 C 5.396 30 4.5 29.104 4.5 28 L 4.5 18 C 4.5 16.896 5.396 16 6.5 16 Z "
     id="path4"
     style="fill:#ffffff;fill-opacity:1" />
  <path
     d="m 1.247,17.965 v 25.243 c 0,1.656 1.344,3 3,3 h 38.982 c 1.656,0 3,-1.344 3,-3 V 20.965 c 0,-1.656 -1.344,-3.001 -3,-3.002 L 21.116,17.946 c -0.552,-0.001 -1.448,-0.001 -2,0 z"
     id="path6"
     style="fill:#367bf0;fill-opacity:1"
     sodipodi:nodetypes="cssssscccc" />
  <g
     id="g33"
     transform="matrix(0.13333333,0,0,0.13333333,-2.1257879,2.8258221)">
    <path
       d="m 192,151.85 c -35.188,0 -63.749,28.561 -63.749,63.749 0,35.188 28.561,63.751 63.749,63.751 35.188,0 63.751,-28.563 63.751,-63.751 0,-35.188 -28.563,-63.749 -63.751,-63.749 z m 8.5e-4,11.037 c 14.723,0 26.867,5.0298 37.274,15.437 10.409,10.409 15.439,22.554 15.439,37.276 0,0.44206 -0.0432,0.86403 -0.0523,1.3017 h -23.709 l -11.819,-39.262 a 4.0664,4.0664 0 0 0 -0.51995,-1.0983 4.0663,4.0663 0 0 0 -0.24474,-0.32512 4.0664,4.0664 0 0 0 -0.27399,-0.29955 4.0663,4.0663 0 0 0 -0.63319,-0.509 4.0663,4.0663 0 0 0 -1.1057,-0.50535 4.0664,4.0664 0 0 0 -1.2043,-0.15464 4.0663,4.0663 0 0 0 -0.40671,0.0292 4.0663,4.0663 0 0 0 -0.7915,0.17779 4.0664,4.0664 0 0 0 -0.74035,0.33363 4.0663,4.0663 0 0 0 -0.34218,0.21919 4.0664,4.0664 0 0 0 -0.31782,0.25329 4.0663,4.0663 0 0 0 -0.29103,0.28371 4.0663,4.0663 0 0 0 -0.84386,1.3785 4.0664,4.0664 0 0 0 -0.11932,0.38845 4.0663,4.0663 0 0 0 -0.0512,0.22527 l -7.1466,36.832 -8.5299,-36.973 a 4.0663,4.0663 0 0 0 -0.11202,-0.39088 4.0664,4.0664 0 0 0 -0.14978,-0.37871 4.0663,4.0663 0 0 0 -0.18631,-0.36043 4.0664,4.0664 0 0 0 -0.22162,-0.34096 4.0663,4.0663 0 0 0 -0.54065,-0.6064 4.0664,4.0664 0 0 0 -1.3821,-0.83534 4.0663,4.0663 0 0 0 -0.78785,-0.19484 4.0663,4.0663 0 0 0 -0.81098,-0.0366 4.0663,4.0663 0 0 0 -0.80246,0.12663 4.0663,4.0663 0 0 0 -0.98997,0.41037 4.0664,4.0664 0 0 0 -1.0509,0.85969 4.0663,4.0663 0 0 0 -0.25084,0.31903 4.0664,4.0664 0 0 0 0,8.4e-4 4.0663,4.0663 0 0 0 -0.21675,0.34218 4.0664,4.0664 0 0 0 0,8.5e-4 4.0663,4.0663 0 0 0 -0.0608,0.12055 4.0664,4.0664 0 0 0 -0.26545,0.62224 4.0664,4.0664 0 0 0 -0.0779,0.28616 4.0663,4.0663 0 0 0 -0.0292,0.10594 4.0663,4.0663 0 0 0 -0.005,0.0219 l -12.28,58.072 -4.7843,-16.224 a 4.0664,4.0664 0 0 0 -0.30685,-0.75254 4.0663,4.0663 0 0 0 -0.20824,-0.34948 4.0664,4.0664 0 0 0 -0.24109,-0.32756 4.0663,4.0663 0 0 0 -0.27277,-0.29955 4.0663,4.0663 0 0 0 -0.979,-0.72088 4.0663,4.0663 0 0 0 -1.8923,-0.46636 h -17.323 c -0.009,-0.44517 -0.0548,-0.84984 -0.0548,-1.3017 0,-14.723 5.0306,-26.867 15.438,-37.275 10.409,-10.407 22.552,-15.438 37.275,-15.438 z m 14.093,32.87 7.9418,26.381 a 4.0664,4.0664 0 0 0 1.0399,1.7231 4.0664,4.0664 0 0 0 1.7365,1.0143 4.0663,4.0663 0 0 0 6.5e-4,0 4.0664,4.0664 0 0 0 0.39454,0.0925 4.0663,4.0663 0 0 0 6.5e-4,0 4.0664,4.0664 0 0 0 0.40184,0.0512 4.0664,4.0664 0 0 0 0.31783,0.0122 h 26.019 c -1.7715,10.605 -6.5781,19.749 -14.672,27.842 -10.407,10.409 -22.552,15.439 -37.275,15.439 -14.723,0 -26.866,-5.0302 -37.275,-15.439 -8.0831,-8.083 -12.892,-17.216 -14.664,-27.842 h 13.563 l 8.4739,28.739 a 4.0664,4.0664 0 0 0 1.029,1.7279 4.0664,4.0664 0 0 0 0.62954,0.51387 4.0664,4.0664 0 0 0 0.71845,0.37748 4.0664,4.0664 0 0 0 0.38479,0.13272 4.0664,4.0664 0 0 0 0.39453,0.0938 4.0664,4.0664 0 0 0 0.80855,0.0682 4.0664,4.0664 0 0 0 0.47368,-0.0378 4.0664,4.0664 0 0 0 0.72453,-0.16317 4.0663,4.0663 0 0 0 0.23379,-0.0901 4.0664,4.0664 0 0 0 0.50899,-0.23867 4.0663,4.0663 0 0 0 0.66243,-0.46881 4.0664,4.0664 0 0 0 0.29225,-0.2825 4.0663,4.0663 0 0 0 1.0156,-1.9422 l 11.803,-55.812 8.7016,37.713 a 4.0664,4.0664 0 0 0 7.2867,1.4247 4.0664,4.0664 0 0 0 0.39819,-0.70748 4.0663,4.0663 0 0 0 0.14369,-0.37506 4.0664,4.0664 0 0 0 6.5e-4,-0.003 4.0663,4.0663 0 0 0 0.10473,-0.38844 4.0664,4.0664 0 0 0 6.5e-4,-0.003 4.0663,4.0663 0 0 0 0.0171,-0.0864 z"
       color="#000000"
       color-rendering="auto"
       dominant-baseline="auto"
       fill="#ffffff"
       image-rendering="auto"
       shape-rendering="auto"
       solid-color="#000000"
       stroke-width="0.87046"
       style="font-variant-ligatures:normal;font-variant-position:normal;font-variant-caps:normal;font-variant-numeric:normal;font-variant-alternates:normal;font-feature-settings:normal;text-indent:0;text-decoration-line:none;text-decoration-style:solid;text-decoration-color:#000000;text-transform:none;text-orientation:mixed;white-space:normal;shape-padding:0;isolation:auto;mix-blend-mode:normal"
       id="path21" />
  </g>
</svg>
